<svg width="50" height="50" viewBox="0 0 50 50" fill="none" xmlns="http://www.w3.org/2000/svg">
<mask id="path-1-inside-1" fill="white">
<path d="M23.4675 0.00586118C23.3697 0.0136799 23.0649 0.0410453 22.7835 0.0645013C22.2245 0.111413 21.2591 0.256059 20.8175 0.353793L20.536 0.420251V2.48829V4.56024L19.9928 5.36948C19.3752 6.28426 18.9296 6.83939 18.5427 7.17168C17.8626 7.75809 17.2568 8.05129 16.3148 8.25457C16.0529 8.31321 15.8106 8.32494 15.1813 8.32494C14.3371 8.32494 13.8602 8.27412 13.0707 8.09429L12.6681 8.00437L11.2376 6.57356L9.80315 5.13883L9.25986 5.57667C7.66126 6.85503 6.28936 8.27021 5.07771 9.88477L4.85101 10.1897L6.23855 11.5853L7.63 12.981L7.78634 13.3914C8.17328 14.4001 8.32181 15.1076 8.32181 15.9521C8.32181 16.5463 8.28663 16.7887 8.13811 17.2773C7.75898 18.5088 6.60205 19.6542 4.73376 20.6433L4.32727 20.8583H2.3339C0.625864 20.8583 0.332723 20.8661 0.317089 20.913C0.278003 21.0147 0.102118 22.2266 0.0473982 22.7543C0.0161298 23.0749 -0.00341298 23.7942 0.000495576 24.6894C0.000495576 26.1476 0.0395811 26.8513 0.211558 28.419C0.254552 28.806 0.289729 29.1344 0.289729 29.1539C0.289729 29.1696 1.17697 29.1852 2.25964 29.1852H4.22564L4.55396 29.3181C6.18383 29.9788 7.13752 30.7802 7.68081 31.9452C8.23191 33.1141 8.228 34.8068 7.67299 36.7068L7.59091 36.9843L6.19946 38.38L4.80802 39.7756L4.91355 39.932C5.08943 40.1978 5.76952 41.0305 6.28154 41.6013C7.26259 42.7037 8.30227 43.7006 9.29504 44.4942L9.80315 44.9047L11.2532 43.4543L12.7033 42.0078L13.0121 41.9687C13.5671 41.9023 15.0093 41.8788 15.5331 41.9257C17.2294 42.0821 18.4293 42.6451 19.3987 43.7397C19.6918 44.0759 20.153 44.76 20.3758 45.1979L20.536 45.5145V47.5669V49.6193L20.9386 49.6819C21.5015 49.7718 22.5255 49.893 23.1939 49.9516C23.9326 50.0181 26.1839 50.0142 26.8484 49.9516C27.3838 49.8969 28.6776 49.721 28.7948 49.6858C28.8574 49.6662 28.8613 49.5333 28.8613 47.5825V45.5028L29.0411 45.1314C29.5922 43.9977 30.4716 43.079 31.5191 42.5551C31.9764 42.3245 32.6565 42.1095 33.2584 42.0039C33.7001 41.9257 33.8994 41.914 34.7632 41.9101C35.3651 41.9101 35.9436 41.9296 36.2289 41.9648L36.6979 42.0156L38.2496 43.5794L39.8052 45.147L39.9498 45.0337C40.2821 44.7874 41.3413 43.9156 41.779 43.5325C42.9594 42.4965 44.0186 41.3589 44.73 40.3542L44.8629 40.1665L43.3112 38.6145L41.7595 37.0625L41.6266 36.3979C41.396 35.2525 41.353 34.8967 41.353 34.111C41.3491 33.5519 41.3686 33.3135 41.4234 33.0554C41.611 32.1954 41.9549 31.5425 42.5608 30.9092C43.1158 30.3267 43.706 29.9123 44.644 29.4432L45.1599 29.1852H47.4074H49.6548L49.6743 29.0953C49.7017 28.9584 49.8072 28.1258 49.8698 27.5042C50.073 25.4909 50.0378 23.3016 49.7681 21.5268C49.7251 21.2336 49.6821 20.9638 49.6704 20.9247C49.6509 20.8622 49.5063 20.8583 47.3683 20.8583H45.0857L44.5854 20.6081C42.4748 19.5487 41.5211 18.2273 41.3882 16.1671C41.3491 15.5611 41.4742 14.271 41.6813 13.196L41.7204 12.981L43.3034 11.3977L44.8863 9.8144L44.6362 9.45083C43.8349 8.2663 42.6546 7.05049 41.2279 5.94415C40.5166 5.38512 39.774 4.85735 39.7349 4.8769C39.7153 4.88081 39.0157 5.55713 38.1871 6.37418C37.0966 7.44534 36.6354 7.87537 36.5299 7.91055C36.4517 7.94182 36.139 8.0161 35.838 8.07865C32.9183 8.6846 30.7335 7.69163 29.0958 5.00591L28.8613 4.61888V2.45702C28.8613 0.678268 28.8535 0.295152 28.8105 0.295152C28.7792 0.295152 28.4431 0.259968 28.0561 0.216966C26.6334 0.060592 25.9611 0.0175892 24.8159 0.00586118C24.171 -0.0019575 23.5652 -0.0019575 23.4675 0.00586118ZM26.3012 16.4251C27.247 16.5385 28.1851 16.8238 29.1153 17.2812C30.1003 17.766 30.8351 18.2977 31.6012 19.0834C32.7386 20.2563 33.5359 21.7379 33.9033 23.3642C34.1574 24.494 34.1652 26.0147 33.9189 27.1328C33.2115 30.3267 30.9328 32.8521 27.8685 33.8334C26.9265 34.1344 26.2074 34.2439 25.1677 34.2439C23.7137 34.2439 22.5529 33.978 21.2591 33.3486C19.9615 32.7192 18.8515 31.8123 18.0307 30.7098C17.589 30.1156 17.4092 29.8224 17.0965 29.1774C16.6392 28.243 16.3422 27.1953 16.2327 26.1398C16.1702 25.5417 16.2093 24.4549 16.3109 23.8489C16.7916 21.0068 18.5075 18.6534 21.0559 17.3399C22.6975 16.4916 24.4016 16.1944 26.3012 16.4251Z"/>
</mask>
<path d="M23.4675 0.00586118C23.3697 0.0136799 23.0649 0.0410453 22.7835 0.0645013C22.2245 0.111413 21.2591 0.256059 20.8175 0.353793L20.536 0.420251V2.48829V4.56024L19.9928 5.36948C19.3752 6.28426 18.9296 6.83939 18.5427 7.17168C17.8626 7.75809 17.2568 8.05129 16.3148 8.25457C16.0529 8.31321 15.8106 8.32494 15.1813 8.32494C14.3371 8.32494 13.8602 8.27412 13.0707 8.09429L12.6681 8.00437L11.2376 6.57356L9.80315 5.13883L9.25986 5.57667C7.66126 6.85503 6.28936 8.27021 5.07771 9.88477L4.85101 10.1897L6.23855 11.5853L7.63 12.981L7.78634 13.3914C8.17328 14.4001 8.32181 15.1076 8.32181 15.9521C8.32181 16.5463 8.28663 16.7887 8.13811 17.2773C7.75898 18.5088 6.60205 19.6542 4.73376 20.6433L4.32727 20.8583H2.3339C0.625864 20.8583 0.332723 20.8661 0.317089 20.913C0.278003 21.0147 0.102118 22.2266 0.0473982 22.7543C0.0161298 23.0749 -0.00341298 23.7942 0.000495576 24.6894C0.000495576 26.1476 0.0395811 26.8513 0.211558 28.419C0.254552 28.806 0.289729 29.1344 0.289729 29.1539C0.289729 29.1696 1.17697 29.1852 2.25964 29.1852H4.22564L4.55396 29.3181C6.18383 29.9788 7.13752 30.7802 7.68081 31.9452C8.23191 33.1141 8.228 34.8068 7.67299 36.7068L7.59091 36.9843L6.19946 38.38L4.80802 39.7756L4.91355 39.932C5.08943 40.1978 5.76952 41.0305 6.28154 41.6013C7.26259 42.7037 8.30227 43.7006 9.29504 44.4942L9.80315 44.9047L11.2532 43.4543L12.7033 42.0078L13.0121 41.9687C13.5671 41.9023 15.0093 41.8788 15.5331 41.9257C17.2294 42.0821 18.4293 42.6451 19.3987 43.7397C19.6918 44.0759 20.153 44.76 20.3758 45.1979L20.536 45.5145V47.5669V49.6193L20.9386 49.6819C21.5015 49.7718 22.5255 49.893 23.1939 49.9516C23.9326 50.0181 26.1839 50.0142 26.8484 49.9516C27.3838 49.8969 28.6776 49.721 28.7948 49.6858C28.8574 49.6662 28.8613 49.5333 28.8613 47.5825V45.5028L29.0411 45.1314C29.5922 43.9977 30.4716 43.079 31.5191 42.5551C31.9764 42.3245 32.6565 42.1095 33.2584 42.0039C33.7001 41.9257 33.8994 41.914 34.7632 41.9101C35.3651 41.9101 35.9436 41.9296 36.2289 41.9648L36.6979 42.0156L38.2496 43.5794L39.8052 45.147L39.9498 45.0337C40.2821 44.7874 41.3413 43.9156 41.779 43.5325C42.9594 42.4965 44.0186 41.3589 44.73 40.3542L44.8629 40.1665L43.3112 38.6145L41.7595 37.0625L41.6266 36.3979C41.396 35.2525 41.353 34.8967 41.353 34.111C41.3491 33.5519 41.3686 33.3135 41.4234 33.0554C41.611 32.1954 41.9549 31.5425 42.5608 30.9092C43.1158 30.3267 43.706 29.9123 44.644 29.4432L45.1599 29.1852H47.4074H49.6548L49.6743 29.0953C49.7017 28.9584 49.8072 28.1258 49.8698 27.5042C50.073 25.4909 50.0378 23.3016 49.7681 21.5268C49.7251 21.2336 49.6821 20.9638 49.6704 20.9247C49.6509 20.8622 49.5063 20.8583 47.3683 20.8583H45.0857L44.5854 20.6081C42.4748 19.5487 41.5211 18.2273 41.3882 16.1671C41.3491 15.5611 41.4742 14.271 41.6813 13.196L41.7204 12.981L43.3034 11.3977L44.8863 9.8144L44.6362 9.45083C43.8349 8.2663 42.6546 7.05049 41.2279 5.94415C40.5166 5.38512 39.774 4.85735 39.7349 4.8769C39.7153 4.88081 39.0157 5.55713 38.1871 6.37418C37.0966 7.44534 36.6354 7.87537 36.5299 7.91055C36.4517 7.94182 36.139 8.0161 35.838 8.07865C32.9183 8.6846 30.7335 7.69163 29.0958 5.00591L28.8613 4.61888V2.45702C28.8613 0.678268 28.8535 0.295152 28.8105 0.295152C28.7792 0.295152 28.4431 0.259968 28.0561 0.216966C26.6334 0.060592 25.9611 0.0175892 24.8159 0.00586118C24.171 -0.0019575 23.5652 -0.0019575 23.4675 0.00586118ZM26.3012 16.4251C27.247 16.5385 28.1851 16.8238 29.1153 17.2812C30.1003 17.766 30.8351 18.2977 31.6012 19.0834C32.7386 20.2563 33.5359 21.7379 33.9033 23.3642C34.1574 24.494 34.1652 26.0147 33.9189 27.1328C33.2115 30.3267 30.9328 32.8521 27.8685 33.8334C26.9265 34.1344 26.2074 34.2439 25.1677 34.2439C23.7137 34.2439 22.5529 33.978 21.2591 33.3486C19.9615 32.7192 18.8515 31.8123 18.0307 30.7098C17.589 30.1156 17.4092 29.8224 17.0965 29.1774C16.6392 28.243 16.3422 27.1953 16.2327 26.1398C16.1702 25.5417 16.2093 24.4549 16.3109 23.8489C16.7916 21.0068 18.5075 18.6534 21.0559 17.3399C22.6975 16.4916 24.4016 16.1944 26.3012 16.4251Z" stroke="#F84AA7" stroke-width="40" mask="url(#path-1-inside-1)"/>
</svg>
