<svg width="25" height="25" viewBox="0 0 25 25" fill="none" xmlns="http://www.w3.org/2000/svg">
<mask id="path-1-inside-1" fill="white">
<path d="M11.7337 0.00293059C11.6849 0.00683993 11.5324 0.0205226 11.3917 0.0322507C11.1123 0.0557067 10.6296 0.12803 10.4087 0.176896L10.268 0.210126V1.24415V2.28012L9.99638 2.68474C9.6876 3.14213 9.46481 3.4197 9.27134 3.58584C8.9313 3.87904 8.62838 4.02564 8.1574 4.12729C8.02647 4.15661 7.9053 4.16247 7.59066 4.16247C7.16854 4.16247 6.93012 4.13706 6.53535 4.04714L6.33406 4.00219L5.6188 3.28678L4.90158 2.56941L4.62993 2.78834C3.83063 3.42751 3.14468 4.1351 2.53885 4.94238L2.42551 5.09485L3.11927 5.79267L3.815 6.49048L3.89317 6.69572C4.08664 7.20003 4.1609 7.55382 4.1609 7.97603C4.1609 8.27314 4.14332 8.39433 4.06905 8.63867C3.87949 9.25439 3.30102 9.82711 2.36688 10.3216L2.16363 10.4291H1.16695C0.312932 10.4291 0.166361 10.4331 0.158544 10.4565C0.139002 10.5073 0.051059 11.1133 0.0236991 11.3772C0.0080649 11.5374 -0.00170649 11.8971 0.000247788 12.3447C0.000247788 13.0738 0.0197906 13.4257 0.105779 14.2095C0.127276 14.403 0.144864 14.5672 0.144864 14.577C0.144864 14.5848 0.588485 14.5926 1.12982 14.5926H2.11282L2.27698 14.6591C3.09192 14.9894 3.56876 15.3901 3.8404 15.9726C4.11596 16.557 4.114 17.4034 3.83649 18.3534L3.79546 18.4922L3.09973 19.19L2.40401 19.8878L2.45677 19.966C2.54472 20.0989 2.88476 20.5152 3.14077 20.8006C3.6313 21.3518 4.15113 21.8503 4.64752 22.2471L4.90158 22.4523L5.62661 21.7271L6.35165 21.0039L6.50604 20.9844C6.78355 20.9511 7.50467 20.9394 7.76655 20.9629C8.6147 21.0411 9.21467 21.3225 9.69933 21.8698C9.8459 22.0379 10.0765 22.38 10.1879 22.5989L10.268 22.7573V23.7835V24.8097L10.4693 24.8409C10.7507 24.8859 11.2628 24.9465 11.5969 24.9758C11.9663 25.009 13.092 25.0071 13.4242 24.9758C13.6919 24.9484 14.3388 24.8605 14.3974 24.8429C14.4287 24.8331 14.4306 24.7667 14.4306 23.7913V22.7514L14.5205 22.5657C14.7961 21.9988 15.2358 21.5395 15.7595 21.2776C15.9882 21.1622 16.3282 21.0547 16.6292 21.002C16.85 20.9629 16.9497 20.957 17.3816 20.955C17.6826 20.955 17.9718 20.9648 18.1144 20.9824L18.349 21.0078L19.1248 21.7897L19.9026 22.5735L19.9749 22.5168C20.141 22.3937 20.6706 21.9578 20.8895 21.7662C21.4797 21.2482 22.0093 20.6794 22.365 20.1771L22.4314 20.0833L21.6556 19.3073L20.8798 18.5313L20.8133 18.199C20.698 17.6262 20.6765 17.4484 20.6765 17.0555C20.6746 16.776 20.6843 16.6567 20.7117 16.5277C20.8055 16.0977 20.9775 15.7713 21.2804 15.4546C21.5579 15.1634 21.853 14.9562 22.322 14.7216L22.58 14.5926H23.7037H24.8274L24.8372 14.5476C24.8508 14.4792 24.9036 14.0629 24.9349 13.7521C25.0365 12.7454 25.0189 11.6508 24.8841 10.7634C24.8626 10.6168 24.8411 10.4819 24.8352 10.4624C24.8254 10.4311 24.7531 10.4291 23.6841 10.4291H22.5428L22.2927 10.304C21.2374 9.77433 20.7605 9.11365 20.6941 8.08354C20.6746 7.78057 20.7371 7.13552 20.8407 6.59799L20.8602 6.49048L21.6517 5.69884L22.4432 4.9072L22.3181 4.72542C21.9175 4.13315 21.3273 3.52525 20.614 2.97208C20.2583 2.69256 19.887 2.42868 19.8674 2.43845C19.8577 2.44041 19.5078 2.77856 19.0935 3.18709C18.5483 3.72267 18.3177 3.93768 18.2649 3.95528C18.2258 3.97091 18.0695 4.00805 17.919 4.03933C16.4592 4.3423 15.3667 3.84581 14.5479 2.50295L14.4306 2.30944V1.22851C14.4306 0.339134 14.4267 0.147576 14.4052 0.147576C14.3896 0.147576 14.2215 0.129984 14.0281 0.108483C13.3167 0.030296 12.9806 0.0087946 12.408 0.00293059C12.0855 -0.00097875 11.7826 -0.00097875 11.7337 0.00293059ZM13.1506 8.21255C13.6235 8.26923 14.0925 8.41192 14.5577 8.64062C15.0501 8.883 15.4175 9.14884 15.8006 9.54172C16.3693 10.1281 16.768 10.8689 16.9517 11.6821C17.0787 12.247 17.0826 13.0074 16.9595 13.5664C16.6057 15.1634 15.4664 16.4261 13.9342 16.9167C13.4633 17.0672 13.1037 17.1219 12.5838 17.1219C11.8569 17.1219 11.2764 16.989 10.6296 16.6743C9.98074 16.3596 9.42573 15.9061 9.01533 15.3549C8.7945 15.0578 8.7046 14.9112 8.54826 14.5887C8.31961 14.1215 8.17108 13.5977 8.11636 13.0699C8.08509 12.7708 8.10464 12.2274 8.15545 11.9245C8.39582 10.5034 9.25375 9.32671 10.5279 8.66994C11.3487 8.24578 12.2008 8.09722 13.1506 8.21255Z"/>
</mask>
<path d="M11.7337 0.00293059C11.6849 0.00683993 11.5324 0.0205226 11.3917 0.0322507C11.1123 0.0557067 10.6296 0.12803 10.4087 0.176896L10.268 0.210126V1.24415V2.28012L9.99638 2.68474C9.6876 3.14213 9.46481 3.4197 9.27134 3.58584C8.9313 3.87904 8.62838 4.02564 8.1574 4.12729C8.02647 4.15661 7.9053 4.16247 7.59066 4.16247C7.16854 4.16247 6.93012 4.13706 6.53535 4.04714L6.33406 4.00219L5.6188 3.28678L4.90158 2.56941L4.62993 2.78834C3.83063 3.42751 3.14468 4.1351 2.53885 4.94238L2.42551 5.09485L3.11927 5.79267L3.815 6.49048L3.89317 6.69572C4.08664 7.20003 4.1609 7.55382 4.1609 7.97603C4.1609 8.27314 4.14332 8.39433 4.06905 8.63867C3.87949 9.25439 3.30102 9.82711 2.36688 10.3216L2.16363 10.4291H1.16695C0.312932 10.4291 0.166361 10.4331 0.158544 10.4565C0.139002 10.5073 0.051059 11.1133 0.0236991 11.3772C0.0080649 11.5374 -0.00170649 11.8971 0.000247788 12.3447C0.000247788 13.0738 0.0197906 13.4257 0.105779 14.2095C0.127276 14.403 0.144864 14.5672 0.144864 14.577C0.144864 14.5848 0.588485 14.5926 1.12982 14.5926H2.11282L2.27698 14.6591C3.09192 14.9894 3.56876 15.3901 3.8404 15.9726C4.11596 16.557 4.114 17.4034 3.83649 18.3534L3.79546 18.4922L3.09973 19.19L2.40401 19.8878L2.45677 19.966C2.54472 20.0989 2.88476 20.5152 3.14077 20.8006C3.6313 21.3518 4.15113 21.8503 4.64752 22.2471L4.90158 22.4523L5.62661 21.7271L6.35165 21.0039L6.50604 20.9844C6.78355 20.9511 7.50467 20.9394 7.76655 20.9629C8.6147 21.0411 9.21467 21.3225 9.69933 21.8698C9.8459 22.0379 10.0765 22.38 10.1879 22.5989L10.268 22.7573V23.7835V24.8097L10.4693 24.8409C10.7507 24.8859 11.2628 24.9465 11.5969 24.9758C11.9663 25.009 13.092 25.0071 13.4242 24.9758C13.6919 24.9484 14.3388 24.8605 14.3974 24.8429C14.4287 24.8331 14.4306 24.7667 14.4306 23.7913V22.7514L14.5205 22.5657C14.7961 21.9988 15.2358 21.5395 15.7595 21.2776C15.9882 21.1622 16.3282 21.0547 16.6292 21.002C16.85 20.9629 16.9497 20.957 17.3816 20.955C17.6826 20.955 17.9718 20.9648 18.1144 20.9824L18.349 21.0078L19.1248 21.7897L19.9026 22.5735L19.9749 22.5168C20.141 22.3937 20.6706 21.9578 20.8895 21.7662C21.4797 21.2482 22.0093 20.6794 22.365 20.1771L22.4314 20.0833L21.6556 19.3073L20.8798 18.5313L20.8133 18.199C20.698 17.6262 20.6765 17.4484 20.6765 17.0555C20.6746 16.776 20.6843 16.6567 20.7117 16.5277C20.8055 16.0977 20.9775 15.7713 21.2804 15.4546C21.5579 15.1634 21.853 14.9562 22.322 14.7216L22.58 14.5926H23.7037H24.8274L24.8372 14.5476C24.8508 14.4792 24.9036 14.0629 24.9349 13.7521C25.0365 12.7454 25.0189 11.6508 24.8841 10.7634C24.8626 10.6168 24.8411 10.4819 24.8352 10.4624C24.8254 10.4311 24.7531 10.4291 23.6841 10.4291H22.5428L22.2927 10.304C21.2374 9.77433 20.7605 9.11365 20.6941 8.08354C20.6746 7.78057 20.7371 7.13552 20.8407 6.59799L20.8602 6.49048L21.6517 5.69884L22.4432 4.9072L22.3181 4.72542C21.9175 4.13315 21.3273 3.52525 20.614 2.97208C20.2583 2.69256 19.887 2.42868 19.8674 2.43845C19.8577 2.44041 19.5078 2.77856 19.0935 3.18709C18.5483 3.72267 18.3177 3.93768 18.2649 3.95528C18.2258 3.97091 18.0695 4.00805 17.919 4.03933C16.4592 4.3423 15.3667 3.84581 14.5479 2.50295L14.4306 2.30944V1.22851C14.4306 0.339134 14.4267 0.147576 14.4052 0.147576C14.3896 0.147576 14.2215 0.129984 14.0281 0.108483C13.3167 0.030296 12.9806 0.0087946 12.408 0.00293059C12.0855 -0.00097875 11.7826 -0.00097875 11.7337 0.00293059ZM13.1506 8.21255C13.6235 8.26923 14.0925 8.41192 14.5577 8.64062C15.0501 8.883 15.4175 9.14884 15.8006 9.54172C16.3693 10.1281 16.768 10.8689 16.9517 11.6821C17.0787 12.247 17.0826 13.0074 16.9595 13.5664C16.6057 15.1634 15.4664 16.4261 13.9342 16.9167C13.4633 17.0672 13.1037 17.1219 12.5838 17.1219C11.8569 17.1219 11.2764 16.989 10.6296 16.6743C9.98074 16.3596 9.42573 15.9061 9.01533 15.3549C8.7945 15.0578 8.7046 14.9112 8.54826 14.5887C8.31961 14.1215 8.17108 13.5977 8.11636 13.0699C8.08509 12.7708 8.10464 12.2274 8.15545 11.9245C8.39582 10.5034 9.25375 9.32671 10.5279 8.66994C11.3487 8.24578 12.2008 8.09722 13.1506 8.21255Z" stroke="#F84AA7" stroke-width="20" mask="url(#path-1-inside-1)"/>
</svg>
