<svg width="50" height="50" viewBox="0 0 50 50" fill="none" xmlns="http://www.w3.org/2000/svg">
<path d="M41.7579 24.5007C40.9458 24.5007 40.3168 25.1666 40.3168 26.0345V46.9857H30.0982V38.4305C30.0982 37.6279 29.4694 36.9263 28.7092 36.9263H21.3207C20.5079 36.9263 19.8533 37.6278 19.8533 38.4305V46.9857H9.66047V26.7301C9.66047 25.9214 9.0322 25.2497 8.21945 25.2497C7.45981 25.2497 6.83097 25.9214 6.83097 26.7301V48.5196C6.83097 49.3282 7.45981 50 8.21945 50H21.3207C22.0803 50 22.7092 49.3282 22.7092 48.5196V39.9643H27.2681V48.5196C27.2681 49.3282 27.8969 50 28.7092 50H41.7579C42.5176 50 43.1463 49.3282 43.1463 48.5196V26.0346C43.1463 25.1666 42.5176 24.5007 41.7579 24.5007Z" fill="#693668"/>
<path d="M49.592 25.6957L38.2207 13.5494V5.2676C38.2207 4.4055 37.5655 3.73969 36.7534 3.73969C35.9932 3.73969 35.3644 4.40558 35.3644 5.2676V10.5114L25.9843 0.475673C25.6969 0.166494 25.3554 0 25.015 0C24.622 0 24.2811 0.172403 23.9932 0.475673L0.437982 25.5292C-0.127135 26.1296 -0.164554 27.0928 0.437982 27.6457C0.96176 28.2878 1.86397 28.2462 2.42909 27.6457L25.015 3.68017L47.5484 27.8716C47.7831 28.1214 48.1247 28.2641 48.5702 28.2641C48.9632 28.2641 49.3035 28.1214 49.592 27.8716C50.1163 27.3128 50.1554 26.3021 49.592 25.6957Z" fill="#693668"/>
</svg>
