<svg width="50" height="50" viewBox="0 0 50 50" fill="none" xmlns="http://www.w3.org/2000/svg">
<path d="M40.9856 13.3619C40.8858 13.2616 40.7653 13.1825 40.6326 13.1268C40.4999 13.0727 40.3588 13.0435 40.2176 13.0435H36.9567V1.08696C36.9567 0.486689 36.4695 0 35.8698 0H14.1308C13.5305 0 13.0438 0.486689 13.0438 1.08696V13.0435H9.78296C9.64125 13.0435 9.50007 13.0727 9.36739 13.1268C9.2347 13.1825 9.11423 13.2616 9.01445 13.3619L0.318841 22.0576C-0.10628 22.4822 -0.10628 23.1695 0.318841 23.5941C0.530605 23.8064 0.808712 23.913 1.08735 23.913C1.36546 23.913 1.64356 23.8064 1.85533 23.5941L8.696 16.7539V48.913C8.696 49.5138 9.18269 50 9.78296 50H40.2176C40.8173 50 41.3045 49.5138 41.3045 48.913V16.7539L48.1447 23.5941C48.3564 23.8064 48.6345 23.913 48.9132 23.913C49.1913 23.913 49.4694 23.8064 49.6812 23.5941C50.1063 23.1695 50.1063 22.4822 49.6812 22.0576L40.9856 13.3619ZM15.2177 2.17391H34.7828V13.0435H15.2177V2.17391ZM39.1306 47.8261H10.8699V15.2174H39.1306V47.8261Z" fill="#F84AA7"/>
</svg>
