<svg width="25" height="25" viewBox="0 0 25 25" fill="none" xmlns="http://www.w3.org/2000/svg">
<path d="M20.8789 12.2503C20.4729 12.2503 20.1584 12.5833 20.1584 13.0172V23.4929H15.0491V19.2152C15.0491 18.814 14.7347 18.4632 14.3546 18.4632H10.6603C10.2539 18.4632 9.92665 18.8139 9.92665 19.2152V23.4929H4.83022V13.3651C4.83022 12.9607 4.51608 12.6249 4.10971 12.6249C3.72989 12.6249 3.41547 12.9607 3.41547 13.3651V24.2598C3.41547 24.6641 3.72989 25 4.10971 25H10.6603C11.0401 25 11.3546 24.6641 11.3546 24.2598V19.9822H13.634V24.2598C13.634 24.6641 13.9484 25 14.3546 25H20.8789C21.2588 25 21.5732 24.6641 21.5732 24.2598V13.0173C21.5732 12.5833 21.2588 12.2503 20.8789 12.2503Z" fill="#F84AA7"/>
<path d="M24.796 12.8478L19.1103 6.77469V2.6338C19.1103 2.20275 18.7828 1.86985 18.3767 1.86985C17.9966 1.86985 17.6822 2.20279 17.6822 2.6338V5.25569L12.9921 0.237837C12.8484 0.0832472 12.6777 0 12.5075 0C12.311 0 12.1405 0.0862017 11.9966 0.237837L0.218991 12.7646C-0.0635675 13.0648 -0.0822768 13.5464 0.218991 13.8229C0.48088 14.1439 0.931985 14.1231 1.21454 13.8229L12.5075 1.84008L23.7742 13.9358C23.8915 14.0607 24.0623 14.132 24.2851 14.132C24.4816 14.132 24.6518 14.0607 24.796 13.9358C25.0581 13.6564 25.0777 13.1511 24.796 12.8478Z" fill="#F84AA7"/>
</svg>
