<svg width="25" height="25" viewBox="0 0 25 25" fill="none" xmlns="http://www.w3.org/2000/svg">
<path d="M20.4928 6.68096C20.4429 6.63081 20.3826 6.59127 20.3163 6.5634C20.25 6.53633 20.1794 6.52174 20.1088 6.52174H18.4784V0.543478C18.4784 0.243345 18.2348 0 17.9349 0H7.06538C6.76525 0 6.5219 0.243345 6.5219 0.543478V6.52174H4.89148C4.82062 6.52174 4.75004 6.53633 4.68369 6.5634C4.61735 6.59127 4.55711 6.63081 4.50722 6.68096L0.15942 11.0288C-0.0531401 11.2411 -0.0531401 11.5847 0.15942 11.797C0.265303 11.9032 0.404356 11.9565 0.543674 11.9565C0.682728 11.9565 0.821781 11.9032 0.927663 11.797L4.348 8.37694V24.4565C4.348 24.7569 4.59135 25 4.89148 25H20.1088C20.4087 25 20.6523 24.7569 20.6523 24.4565V8.37694L24.0723 11.797C24.1782 11.9032 24.3173 11.9565 24.4566 11.9565C24.5956 11.9565 24.7347 11.9032 24.8406 11.797C25.0531 11.5847 25.0531 11.2411 24.8406 11.0288L20.4928 6.68096ZM7.60885 1.08696H17.3914V6.52174H7.60885V1.08696ZM19.5653 23.913H5.43495V7.6087H19.5653V23.913Z" fill="#F84AA7"/>
</svg>
