<svg width="38" height="30" viewBox="0 0 38 30" fill="none" xmlns="http://www.w3.org/2000/svg">
<path d="M16.1599 0.904416L16.9371 6.08208e-05H8.44109L0 9.73279H8.56688L16.1599 0.904416ZM10.6007 9.73346H26.6467L22.2845 4.65955L18.6247 0.403221L13.0939 6.83369L10.6007 9.73346ZM0.102661 11.2753L16.0554 28.0622L8.42655 11.2753H0.102661ZM27.13 11.274H25.7397L19.8945 11.2753H10.1174L18.5737 29.8815L18.628 30L26.6851 12.2565L27.13 11.274ZM21.2114 28.0384L37.1389 11.276H28.8222L21.2114 28.0384ZM37.2428 9.73279L28.799 0H20.3089L28.6785 9.73279H37.2428Z" fill="url(#paint0_linear)"/>
<defs>
<linearGradient id="paint0_linear" x1="5.58642" y1="3.35185" x2="28.6769" y2="21.6008" gradientUnits="userSpaceOnUse">
<stop offset="0.441989" stop-color="#0091D7"/>
<stop offset="0.530387" stop-color="white"/>
<stop offset="0.640884" stop-color="#0091D7"/>
</linearGradient>
</defs>
</svg>
