<svg width="34" height="30" viewBox="0 0 34 30" fill="none" xmlns="http://www.w3.org/2000/svg">
<path d="M14.2275 4.44911C14.2275 1.99189 18.6453 0 24.0949 0C29.5444 0 33.9623 1.99189 33.9623 4.44911V5.41399C33.9623 7.87121 29.5444 9.8631 24.0949 9.8631C18.6453 9.8631 14.2275 7.87121 14.2275 5.41399V4.44911Z" fill="url(#paint0_linear)"/>
<path d="M12.6174 17.2231C11.7444 17.3372 10.8219 17.3985 9.86747 17.3985C4.41787 17.3985 8.25851e-05 15.4064 8.25851e-05 12.9493V11.9844C8.25851e-05 9.52716 4.41787 7.53527 9.86747 7.53527C10.8219 7.53527 11.7445 7.59656 12.6174 7.71056V17.2231Z" fill="url(#paint1_linear)"/>
<path d="M12.6174 22.1903C11.7444 22.3042 10.8219 22.3655 9.86747 22.3655C4.41787 22.3655 8.25851e-05 20.3736 8.25851e-05 17.9164V16.9515C8.25851e-05 16.6392 0.0717974 16.3345 0.207609 16.0403C1.14022 18.0603 5.11056 19.5782 9.86747 19.5782C10.8221 19.5782 11.7443 19.516 12.6174 19.402V22.1903Z" fill="url(#paint2_linear)"/>
<path d="M12.6173 24.3693C11.7442 24.4833 10.8221 24.5454 9.86738 24.5454C5.11048 24.5454 1.14013 23.0276 0.207526 21.0075C0.0717149 21.3017 0 21.6064 0 21.9187V22.8836C0 25.3409 4.41779 27.3328 9.86738 27.3328C10.9572 27.3328 12.0054 27.2529 12.9856 27.1058C12.7427 26.6117 12.6173 26.0906 12.6173 25.5508V24.3693Z" fill="url(#paint3_linear)"/>
<path d="M24.0949 12.0429C19.338 12.0429 15.3676 10.5252 14.435 8.50502C14.2992 8.79919 14.2275 9.10386 14.2275 9.41627V10.3811C14.2275 12.8384 18.6453 14.8303 24.0949 14.8303C29.5444 14.8303 33.9623 12.8384 33.9623 10.3811V9.41627C33.9623 9.10386 33.8906 8.79919 33.7547 8.50502C32.8221 10.5252 28.8518 12.0429 24.0949 12.0429Z" fill="url(#paint4_linear)"/>
<path d="M14.435 13.4723C15.3676 15.4923 19.338 17.0101 24.0949 17.0101C28.8518 17.0101 32.8221 15.4924 33.7547 13.4723C33.8906 13.7664 33.9623 14.0711 33.9623 14.3835V15.3484C33.9623 17.8057 29.5444 19.7976 24.0949 19.7976C18.6453 19.7976 14.2275 17.8057 14.2275 15.3484V14.3835C14.2275 14.0711 14.2992 13.7664 14.435 13.4723Z" fill="url(#paint5_linear)"/>
<path d="M24.0949 22.2455C19.338 22.2455 15.3676 20.7277 14.435 18.7076C14.2992 19.0019 14.2275 19.3064 14.2275 19.6188V20.5837C14.2275 23.041 18.6453 25.0328 24.0949 25.0328C29.5444 25.0328 33.9623 23.041 33.9623 20.5837V19.6188C33.9623 19.3064 33.8906 19.0017 33.7547 18.7076C32.8221 20.7276 28.8518 22.2455 24.0949 22.2455Z" fill="url(#paint6_linear)"/>
<path d="M14.435 23.6748C15.3676 25.6949 19.338 27.2126 24.0949 27.2126C28.8518 27.2126 32.8221 25.6948 33.7547 23.6748C33.8906 23.9688 33.9623 24.2736 33.9623 24.5859V25.5509C33.9623 28.0081 29.5444 30 24.0949 30C18.6453 30 14.2275 28.0081 14.2275 25.5509V24.586C14.2275 24.2738 14.2992 23.9691 14.435 23.6748Z" fill="url(#paint7_linear)"/>
<defs>
<linearGradient id="paint0_linear" x1="16.9811" y1="0" x2="16.9811" y2="30" gradientUnits="userSpaceOnUse">
<stop stop-color="#E8D779"/>
<stop offset="1" stop-color="#D9C283"/>
</linearGradient>
<linearGradient id="paint1_linear" x1="16.9811" y1="0" x2="16.9811" y2="30" gradientUnits="userSpaceOnUse">
<stop stop-color="#E8D779"/>
<stop offset="1" stop-color="#D9C283"/>
</linearGradient>
<linearGradient id="paint2_linear" x1="16.9811" y1="0" x2="16.9811" y2="30" gradientUnits="userSpaceOnUse">
<stop stop-color="#E8D779"/>
<stop offset="1" stop-color="#D9C283"/>
</linearGradient>
<linearGradient id="paint3_linear" x1="16.9811" y1="0" x2="16.9811" y2="30" gradientUnits="userSpaceOnUse">
<stop stop-color="#E8D779"/>
<stop offset="1" stop-color="#D9C283"/>
</linearGradient>
<linearGradient id="paint4_linear" x1="16.9811" y1="0" x2="16.9811" y2="30" gradientUnits="userSpaceOnUse">
<stop stop-color="#E8D779"/>
<stop offset="1" stop-color="#D9C283"/>
</linearGradient>
<linearGradient id="paint5_linear" x1="16.9811" y1="0" x2="16.9811" y2="30" gradientUnits="userSpaceOnUse">
<stop stop-color="#E8D779"/>
<stop offset="1" stop-color="#D9C283"/>
</linearGradient>
<linearGradient id="paint6_linear" x1="16.9811" y1="0" x2="16.9811" y2="30" gradientUnits="userSpaceOnUse">
<stop stop-color="#E8D779"/>
<stop offset="1" stop-color="#D9C283"/>
</linearGradient>
<linearGradient id="paint7_linear" x1="16.9811" y1="0" x2="16.9811" y2="30" gradientUnits="userSpaceOnUse">
<stop stop-color="#E8D779"/>
<stop offset="1" stop-color="#D9C283"/>
</linearGradient>
</defs>
</svg>
