<svg width="15" height="30" viewBox="0 0 15 30" fill="none" xmlns="http://www.w3.org/2000/svg">
<path d="M14.8427 11.5162C14.7156 8.18751 14.4283 6.92353 14.2379 6.92353C14.0446 6.92353 13.9838 8.76724 13.7298 10.3965C13.4757 12.022 13.0284 13.8654 13.0284 13.8654L11.8851 13.4314C11.8851 13.4314 11.5646 11.0792 11.4377 8.26043C11.3136 5.44153 11.2168 2.97966 10.8632 2.97966C10.5181 2.97671 10.4518 5.29429 10.3248 8.29754C10.1977 11.2991 9.75326 12.9615 9.75326 12.9615L8.70398 12.8157C8.70398 12.8157 8.19582 10.2123 8.0052 2.25982C7.96102 0.377673 7.5 1.57568e-06 7.5 1.57568e-06C7.5 1.57568e-06 7.03877 0.377673 6.99459 2.25982C6.80418 10.2123 6.29316 12.8157 6.29316 12.8157L5.24653 12.9615C5.24653 12.9615 4.79939 11.2991 4.67235 8.29754C4.54531 5.29429 4.48163 2.97671 4.13398 2.97966C3.78316 2.97966 3.68643 5.44153 3.55653 8.26043C3.43245 11.0792 3.11469 13.4314 3.11469 13.4314L1.97143 13.8654C1.97143 13.8654 1.52429 12.022 1.2702 10.3965C1.01622 8.76724 0.95255 6.92353 0.762142 6.92353C0.57153 6.92353 0.284489 8.18751 0.157346 11.5162C0.0303053 14.8407 0 15.4905 0 15.4905C0 15.4905 3.75275 17.084 5.21357 21.2077C6.67714 25.3291 7.04714 28.9076 7.05816 29.3049C7.07735 29.9215 7.5 30 7.5 30C7.5 30 7.86735 29.9215 7.94184 29.3049C7.98867 28.9104 8.32286 25.3291 9.78622 21.2077C11.2472 17.084 15 15.4905 15 15.4905C15 15.4905 14.9695 14.8407 14.8427 11.5162" fill="white"/>
</svg>
