<svg width="83" height="83" viewBox="0 0 83 83" fill="none" xmlns="http://www.w3.org/2000/svg">
<path fill-rule="evenodd" clip-rule="evenodd" d="M37 79.7398L37 18.0711L13.7157 41.3553C11.7631 43.308 8.59728 43.308 6.64466 41.3553C4.69204 39.4027 4.69204 36.2369 6.64466 34.2843L37.7485 3.18044C18.246 5.06637 3 21.5027 3 41.5C3 61.2407 17.8573 77.5113 37 79.7398ZM80 41.5C80 60.8956 65.6576 76.9413 47 79.6101L47 18.0711L70.2843 41.3553C72.2369 43.308 75.4027 43.308 77.3553 41.3553C79.308 39.4027 79.308 36.2369 77.3553 34.2843L46.377 3.30597C65.3374 5.7028 80 21.8891 80 41.5ZM47 82.6388C67.32 79.9482 83 62.5552 83 41.5C83 18.5802 64.4198 0 41.5 0C18.5802 0 0 18.5802 0 41.5C0 62.8993 16.1968 80.5157 37 82.7589V83H41.5H47V82.6388Z" fill="#693668"/>
</svg>
